
        <svg xmlns="http://www.w3.org/2000/svg" xmlns:xlink="http://www.w3.org/1999/xlink" version="1.1" width="3250" 
        height="2375.632966646726" viewBox="0 0 3250 2375.632966646726">
			
			<g transform="scale(12.5) translate(10, 10)">
				<defs id="SvgjsDefs4548"></defs><g id="SvgjsG4549" featureKey="phAakL-0" transform="matrix(1.5432098765432098,0,0,1.5432098765432098,43.339506172839506,-14.660493827160494)" fill="#cc042b"><path xmlns="http://www.w3.org/2000/svg" d="M50,9.5C27.6,9.5,9.5,27.6,9.5,50S27.6,90.5,50,90.5c22.4,0,40.5-18.2,40.5-40.5S72.4,9.5,50,9.5z M63.8,19.9  c5.8,0,10.5,4.7,10.5,10.5c0,5.8-4.7,10.5-10.5,10.5s-10.5-4.7-10.5-10.5C53.3,24.6,58,19.9,63.8,19.9z M50,54.2  c-2.3,0-4.2-1.9-4.2-4.2s1.9-4.2,4.2-4.2c2.3,0,4.2,1.9,4.2,4.2S52.3,54.2,50,54.2z M36.3,19.9c5.8,0,10.5,4.7,10.5,10.5  c0,5.8-4.7,10.5-10.5,10.5s-10.5-4.7-10.5-10.5C25.7,24.6,30.5,19.9,36.3,19.9z M38.3,56.6c0,5.8-4.7,10.5-10.5,10.5  s-10.5-4.7-10.5-10.5s4.7-10.5,10.5-10.5S38.3,50.8,38.3,56.6z M50,62.3c5.8,0,10.5,4.7,10.5,10.5S55.8,83.4,50,83.4  s-10.5-4.7-10.5-10.5S44.2,62.3,50,62.3z M61.7,56.6c0-5.8,4.7-10.5,10.5-10.5s10.5,4.7,10.5,10.5s-4.7,10.5-10.5,10.5  S61.7,62.4,61.7,56.6z"></path></g><g id="SvgjsG4550" featureKey="fNbRbf-0" transform="matrix(1.7867781524820414,0,0,1.7867781524820414,0,134.3150674660795)" fill="#cc2c2c"><path d="M0 6.039999999999999 l0.72 0 l0 13.24 l7.66 0 l0 -2 l-5.64 0 l0 -1.92 l0.72 0 l0 1.2 l5.64 0 l0 3.44 l-9.1 0 l0 -13.96 z M1.36 6.039999999999999 l7.64 0 l0 3.42 l-4.8 0 l0 -0.72 l4.08 0 l0 -1.98 l-6.2 0 l0 5.78 l4.66 0 l0 0.72 l-5.38 0 l0 -7.22 z M1.36 13.9 l6.08 0 l0 -2 l-4.7 0 l0 -4.54 l4.84 0 l0 0.72 l-4.12 0 l0 3.1 l4.7 0 l0 3.44 l-6.08 0 l0 3.32 l5.6 0 l0 0.72 l-6.32 0 l0 -4.76 z M12.34 18.76 l0.88 0 l0.7 -1.68 l5.22 0.02 l1.28 2.9 l3.68 -0.02 l-6.3 -13.98 l-1.28 0 l-6.26 13.98 l3.9 0 l0.68 -1.6 l3.98 0 l-0.3 -0.68 l-4.12 0 l-0.64 1.58 l-2.38 0 l5.54 -12.6 l0.48 0 l5.56 12.6 l-2.12 0 l-1.28 -2.86 l-6.2 0 z M14.719999999999999 15.24 l2.44 -5.82 l4.1 9.32 l0.82 0 l-4.92 -10.96 l-3.6 8.08 l5.8 0 l-2.2 -4.86 l-1.52 3.66 l0.78 0 l0.74 -1.82 l1.14 2.4 l-3.58 0 z M27.86 16.7 c0.98 0.44 1.84 0.66 2.56 0.66 c0.36 0 0.58 -0.02 0.68 -0.08 c0.46 -0.12 0.78 -0.38 0.98 -0.78 l0.02 -0.04 c0.1 -0.18 0.14 -0.4 0.14 -0.68 c0 -0.14 -0.04 -0.3 -0.12 -0.5 l-0.04 -0.08 c-0.26 -0.54 -0.84 -0.9 -1.9 -1.24 l-0.2 -0.06 l-0.06 -0.02 c-1.62 -0.48 -2.66 -1.24 -3.16 -2.3 c-0.2 -0.4 -0.3 -0.84 -0.3 -1.32 c0 -0.5 0.1 -0.98 0.3 -1.48 l0.04 -0.08 c0.46 -0.92 1.2 -1.52 2.18 -1.82 c0.7 -0.1 1.1 -0.16 1.2 -0.16 c1.36 0 2.94 0.56 4.72 1.66 l0.38 -0.62 c-1.94 -1.18 -3.62 -1.76 -5.08 -1.76 c-0.58 0 -1.06 0.06 -1.4 0.2 c-1.18 0.32 -2.06 1.04 -2.64 2.18 l-0.06 0.14 c-0.24 0.58 -0.36 1.16 -0.36 1.74 c0 0.62 0.12 1.16 0.36 1.64 c0.62 1.24 1.82 2.12 3.62 2.66 l0.24 0.08 c0.82 0.26 1.3 0.54 1.48 0.86 l0.02 0.04 c0.04 0.06 0.06 0.14 0.06 0.24 c0 0.18 -0.02 0.3 -0.08 0.4 c-0.14 0.32 -0.48 0.48 -1.02 0.48 c-0.86 0 -2.1 -0.44 -3.06 -1.06 l-0.3 -0.18 l-1.76 2.84 l0.3 0.18 c1.42 0.96 3.3 1.56 4.82 1.56 c0.5 0 0.96 -0.06 1.38 -0.18 c1.18 -0.34 2.06 -1.08 2.64 -2.2 l0.08 -0.14 c0.24 -0.62 0.36 -1.2 0.36 -1.74 c0 -0.48 -0.16 -1.08 -0.46 -1.82 c-0.54 -1.08 -1.68 -1.9 -3.46 -2.46 l-0.28 -0.08 c-0.56 -0.18 -0.94 -0.36 -1.12 -0.5 c-0.24 -0.2 -0.38 -0.34 -0.44 -0.42 l-0.04 -0.22 c0 -0.2 0.04 -0.38 0.14 -0.52 c0.16 -0.3 0.32 -0.38 0.96 -0.38 c0.86 0 2.1 0.44 3.06 1.06 l0.3 0.18 l1.08 -1.72 l-0.32 -0.18 c-1.22 -0.8 -2.88 -1.36 -4.1 -1.36 c-0.54 0 -0.88 0.04 -1.06 0.14 c-0.82 0.24 -1.44 0.76 -1.84 1.54 c-0.18 0.34 -0.26 0.74 -0.26 1.24 c0 0.38 0.08 0.74 0.24 1.08 c0.42 0.9 1.36 1.56 2.82 2 l0.26 0.08 l0.54 0.2 c0.3 0.12 0.62 0.28 0.98 0.48 c0.64 0.38 0.96 0.92 0.96 1.64 c0 0.4 -0.1 0.78 -0.28 1.12 c-0.42 0.74 -1.14 1.12 -2.14 1.12 c-0.68 0 -1.64 -0.26 -2.88 -0.76 l-0.34 0.58 l-0.02 0.04 c1.14 0.58 2.22 0.86 3.26 0.86 c0.58 0 1.12 -0.12 1.6 -0.36 c0.94 -0.46 1.52 -1.42 1.52 -2.62 c0 -1.9 -1.46 -2.46 -3 -3 l-0.26 -0.08 c-1.26 -0.38 -2.04 -0.9 -2.36 -1.6 c-0.12 -0.24 -0.18 -0.5 -0.18 -0.8 c0 -0.38 0.06 -0.68 0.2 -0.94 c0.32 -0.58 0.78 -0.96 1.38 -1.14 l0.8 -0.1 c1.06 0 2.22 0.36 3.48 1.06 l-0.32 0.5 c-1.3 -0.64 -2.34 -0.96 -3.1 -0.96 c-0.38 0 -0.6 0.02 -0.7 0.08 c-0.44 0.12 -0.76 0.38 -0.98 0.8 l-0.02 0.04 c-0.1 0.18 -0.14 0.42 -0.14 0.72 c0 0.22 0.04 0.38 0.1 0.48 c0.26 0.54 0.94 0.98 2.02 1.3 l0.26 0.08 l0.5 0.16 c0.06 0.02 0.38 0.16 0.96 0.44 c0.78 0.44 1.34 1 1.66 1.66 c0.2 0.4 0.3 0.84 0.3 1.32 c0 0.58 -0.1 1.08 -0.32 1.5 l-0.04 0.08 c-0.46 0.92 -1.2 1.52 -2.18 1.82 c-0.7 0.1 -1.1 0.16 -1.2 0.16 c-1.02 0 -2.34 -0.38 -3.56 -0.96 l-0.56 -0.3 l1 -1.62 z M42.46 18.72 l0.72 0 l-0.02 -5.82 l4.26 -6.18 l0.78 0 l-4.34 6.22 l0 6.34 l-2.06 0 l0.02 -6.34 l-4.86 -6.94 l-0.88 0 l4.98 7.16 l0 6.84 l3.52 0 l0 -6.84 l5 -7.16 l-2.52 0 l-4.6 6.66 l0 6.06 z M45.4 6 l-3.34 4.9 l-2.96 -4.18 l0.78 0 l2.24 3.16 l0.44 -0.64 l-2.3 -3.24 l-2.52 0 l3.98 5.66 l0.34 0.52 l4.22 -6.18 l-0.88 0 z M61.04 16.7 c0.98 0.44 1.84 0.66 2.56 0.66 c0.36 0 0.58 -0.02 0.68 -0.08 c0.46 -0.12 0.78 -0.38 0.98 -0.78 l0.02 -0.04 c0.1 -0.18 0.14 -0.4 0.14 -0.68 c0 -0.14 -0.04 -0.3 -0.12 -0.5 l-0.04 -0.08 c-0.26 -0.54 -0.84 -0.9 -1.9 -1.24 l-0.2 -0.06 l-0.06 -0.02 c-1.62 -0.48 -2.66 -1.24 -3.16 -2.3 c-0.2 -0.4 -0.3 -0.84 -0.3 -1.32 c0 -0.5 0.1 -0.98 0.3 -1.48 l0.04 -0.08 c0.46 -0.92 1.2 -1.52 2.18 -1.82 c0.7 -0.1 1.1 -0.16 1.2 -0.16 c1.36 0 2.94 0.56 4.72 1.66 l0.38 -0.62 c-1.94 -1.18 -3.62 -1.76 -5.08 -1.76 c-0.58 0 -1.06 0.06 -1.4 0.2 c-1.18 0.32 -2.06 1.04 -2.64 2.18 l-0.06 0.14 c-0.24 0.58 -0.36 1.16 -0.36 1.74 c0 0.62 0.12 1.16 0.36 1.64 c0.62 1.24 1.82 2.12 3.62 2.66 l0.24 0.08 c0.82 0.26 1.3 0.54 1.48 0.86 l0.02 0.04 c0.04 0.06 0.06 0.14 0.06 0.24 c0 0.18 -0.02 0.3 -0.08 0.4 c-0.14 0.32 -0.48 0.48 -1.02 0.48 c-0.86 0 -2.1 -0.44 -3.06 -1.06 l-0.3 -0.18 l-1.76 2.84 l0.3 0.18 c1.42 0.96 3.3 1.56 4.82 1.56 c0.5 0 0.96 -0.06 1.38 -0.18 c1.18 -0.34 2.06 -1.08 2.64 -2.2 l0.08 -0.14 c0.24 -0.62 0.36 -1.2 0.36 -1.74 c0 -0.48 -0.16 -1.08 -0.46 -1.82 c-0.54 -1.08 -1.68 -1.9 -3.46 -2.46 l-0.28 -0.08 c-0.56 -0.18 -0.94 -0.36 -1.12 -0.5 c-0.24 -0.2 -0.38 -0.34 -0.44 -0.42 l-0.04 -0.22 c0 -0.2 0.04 -0.38 0.14 -0.52 c0.16 -0.3 0.32 -0.38 0.96 -0.38 c0.86 0 2.1 0.44 3.06 1.06 l0.3 0.18 l1.08 -1.72 l-0.32 -0.18 c-1.22 -0.8 -2.88 -1.36 -4.1 -1.36 c-0.54 0 -0.88 0.04 -1.06 0.14 c-0.82 0.24 -1.44 0.76 -1.84 1.54 c-0.18 0.34 -0.26 0.74 -0.26 1.24 c0 0.38 0.08 0.74 0.24 1.08 c0.42 0.9 1.36 1.56 2.82 2 l0.26 0.08 l0.54 0.2 c0.3 0.12 0.62 0.28 0.98 0.48 c0.64 0.38 0.96 0.92 0.96 1.64 c0 0.4 -0.1 0.78 -0.28 1.12 c-0.42 0.74 -1.14 1.12 -2.14 1.12 c-0.68 0 -1.64 -0.26 -2.88 -0.76 l-0.34 0.58 l-0.02 0.04 c1.14 0.58 2.22 0.86 3.26 0.86 c0.58 0 1.12 -0.12 1.6 -0.36 c0.94 -0.46 1.52 -1.42 1.52 -2.62 c0 -1.9 -1.46 -2.46 -3 -3 l-0.26 -0.08 c-1.26 -0.38 -2.04 -0.9 -2.36 -1.6 c-0.12 -0.24 -0.18 -0.5 -0.18 -0.8 c0 -0.38 0.06 -0.68 0.2 -0.94 c0.32 -0.58 0.78 -0.96 1.38 -1.14 l0.8 -0.1 c1.06 0 2.22 0.36 3.48 1.06 l-0.32 0.5 c-1.3 -0.64 -2.34 -0.96 -3.1 -0.96 c-0.38 0 -0.6 0.02 -0.7 0.08 c-0.44 0.12 -0.76 0.38 -0.98 0.8 l-0.02 0.04 c-0.1 0.18 -0.14 0.42 -0.14 0.72 c0 0.22 0.04 0.38 0.1 0.48 c0.26 0.54 0.94 0.98 2.02 1.3 l0.26 0.08 l0.5 0.16 c0.06 0.02 0.38 0.16 0.96 0.44 c0.78 0.44 1.34 1 1.66 1.66 c0.2 0.4 0.3 0.84 0.3 1.32 c0 0.58 -0.1 1.08 -0.32 1.5 l-0.04 0.08 c-0.46 0.92 -1.2 1.52 -2.18 1.82 c-0.7 0.1 -1.1 0.16 -1.2 0.16 c-1.02 0 -2.34 -0.38 -3.56 -0.96 l-0.56 -0.3 l1 -1.62 z M74.1 8.6 l4.78 0 l0 -1.9 l-8.5 0 l0 0.62 l7.82 0 l0 0.72 l-8.54 0 l0 -2.06 l9.94 0 l0 3.34 l-4.78 0 l0 9.36 l-0.72 0 l0 -10.08 z M72.75999999999999 9.32 l-3.1 0 l0 -0.72 l3.82 0 l0 10.66 l2 0 l0 -9.32 l0.72 0 l0 10.06 l-3.44 0 l0 -10.68 z M91.32 19.28 l-2.3 0 l-2.76 -5.14 l-1.86 0.02 l0 5.12 l-2.02 0 l0 -13.28 l-0.72 0 l0 14 l3.48 0 l0 -5.14 l0.7 0 l2.74 5.14 l3.94 0 l-2.76 -5.16 l-0.66 0.26 z M86.55999999999999 6.720000000000001 c2.9 0 4.54 1.3 4.54 3.68 c0 2.16 -1.3 3.48 -3.56 3.72 l-0.54 0.06 l2.5 4.62 l0.82 0 l-2.18 -4.06 c2.4 -0.42 3.68 -1.88 3.68 -4.34 c0 -0.82 -0.18 -1.56 -0.52 -2.22 c-0.8 -1.42 -2.44 -2.18 -4.74 -2.18 l-3.54 0 l0 12.78 l0.72 0 l0 -12.06 l2.82 0 z M86.39999999999999 13.52 c2.74 0 4.04 -0.94 4.04 -3.02 c0 -1.98 -1.36 -3.1 -3.54 -3.1 l-2.52 0 l0 2.1 l2.3 0 c1.06 0 1.6 0.3 1.6 0.9 c0 0.7 -0.66 1.04 -2 1.04 l-1.16 0 l0 -1.24 l-0.74 0 l0 1.96 l1.9 0 c1.78 0 2.72 -0.62 2.72 -1.76 c0 -0.36 -0.08 -0.64 -0.26 -0.86 c-0.34 -0.5 -1.02 -0.74 -2.06 -0.74 l-1.56 0 l0 -0.68 l1.78 0 c1.78 0 2.82 0.86 2.82 2.38 c0 1.58 -1.06 2.32 -3.32 2.32 l-2 0 l0 0.7 l2 0 z M93.32 6.039999999999999 l0.72 0 l0 13.24 l7.66 0 l0 -2 l-5.64 0 l0 -1.92 l0.72 0 l0 1.2 l5.64 0 l0 3.44 l-9.1 0 l0 -13.96 z M94.67999999999999 6.039999999999999 l7.64 0 l0 3.42 l-4.8 0 l0 -0.72 l4.08 0 l0 -1.98 l-6.2 0 l0 5.78 l4.66 0 l0 0.72 l-5.38 0 l0 -7.22 z M94.67999999999999 13.9 l6.08 0 l0 -2 l-4.7 0 l0 -4.54 l4.84 0 l0 0.72 l-4.12 0 l0 3.1 l4.7 0 l0 3.44 l-6.08 0 l0 3.32 l5.6 0 l0 0.72 l-6.32 0 l0 -4.76 z M105.66 18.76 l0.88 0 l0.7 -1.68 l5.22 0.02 l1.28 2.9 l3.68 -0.02 l-6.3 -13.98 l-1.28 0 l-6.26 13.98 l3.9 0 l0.68 -1.6 l3.98 0 l-0.3 -0.68 l-4.12 0 l-0.64 1.58 l-2.38 0 l5.54 -12.6 l0.48 0 l5.56 12.6 l-2.12 0 l-1.28 -2.86 l-6.2 0 z M108.03999999999999 15.24 l2.44 -5.82 l4.1 9.32 l0.82 0 l-4.92 -10.96 l-3.6 8.08 l5.8 0 l-2.2 -4.86 l-1.52 3.66 l0.78 0 l0.74 -1.82 l1.14 2.4 l-3.58 0 z M121.44 5.98 l5.8 10.9 l2.42 -4.48 l1.16 7.6 l0.72 0 l-1.5 -9.84 l-2.8 5.18 l-4.98 -9.36 l-0.82 0 z M127.82000000000001 11.36 l-0.94 1.74 l0.42 0.76 l1.32 -2.5 l1.76 -3.28 l0.06 -0.14 l0.66 -1.22 l0.48 0 l0.06 0.48 l1.5 9.76 l0.34 2.3 l-0.66 0 l-1.52 -9.9 l-0.18 -1.2 l-0.56 1.06 l1.6 10.48 l-0.02 0 l0.06 0.3 l2.12 0 l-2.12 -14.02 l-1.54 0 z M126.60000000000001 17.06 l-5.74 -10.82 l-0.12 -0.2 l-2.12 13.96 l3.5 0 l0.64 -4.14 l-0.42 -0.78 l-0.16 -0.3 l-0.68 4.48 l-2.04 0 l1.68 -10.96 l6.12 11.52 l2.18 -4.14 l-0.16 -1.06 l-0.02 -0.14 l-2 3.8 z M121.86 12.620000000000001 l3.92 7.38 l0.82 0 l-5.12 -9.62 l-1.3 8.36 l0.72 0 z"></path></g>
			</g>
		</svg>
	